<svg width="53" height="54" viewBox="0 0 53 54" fill="none" xmlns="http://www.w3.org/2000/svg">
<path d="M48.5174 41.2637C48.5174 42.0587 48.3407 42.8758 47.9653 43.6708C47.5899 44.4658 47.1041 45.2167 46.4637 45.9233C45.3816 47.1158 44.1891 47.9771 42.842 48.5292C41.517 49.0812 40.0816 49.3683 38.5357 49.3683C36.2832 49.3683 33.8762 48.8383 31.3366 47.7562C28.797 46.6742 26.2574 45.2167 23.7399 43.3837C21.2003 41.5287 18.7932 39.475 16.4966 37.2004C14.222 34.9037 12.1682 32.4967 10.3353 29.9792C8.52449 27.4617 7.06699 24.9442 6.00699 22.4487C4.94699 19.9312 4.41699 17.5242 4.41699 15.2275C4.41699 13.7258 4.68199 12.2904 5.21199 10.9654C5.74199 9.61833 6.58116 8.38166 7.75158 7.27749C9.16491 5.88624 10.7107 5.20166 12.3449 5.20166C12.9632 5.20166 13.5816 5.33416 14.1337 5.59916C14.7078 5.86416 15.2157 6.26166 15.6132 6.83583L20.7366 14.0571C21.1341 14.6092 21.4212 15.1171 21.6199 15.6029C21.8187 16.0667 21.9291 16.5304 21.9291 16.95C21.9291 17.48 21.7745 18.01 21.4653 18.5179C21.1782 19.0258 20.7587 19.5558 20.2287 20.0858L18.5503 21.8304C18.3074 22.0733 18.197 22.3604 18.197 22.7137C18.197 22.8904 18.2191 23.045 18.2632 23.2217C18.3295 23.3983 18.3957 23.5308 18.4399 23.6633C18.8374 24.3921 19.522 25.3417 20.4937 26.49C21.4874 27.6383 22.5474 28.8087 23.6957 29.9792C24.8882 31.1496 26.0366 32.2317 27.207 33.2254C28.3553 34.1971 29.3049 34.8596 30.0557 35.2571C30.1662 35.3012 30.2987 35.3675 30.4532 35.4337C30.6299 35.5 30.8066 35.5221 31.0053 35.5221C31.3807 35.5221 31.6678 35.3896 31.9107 35.1467L33.5891 33.4904C34.1412 32.9383 34.6712 32.5187 35.1791 32.2537C35.687 31.9446 36.1949 31.79 36.747 31.79C37.1666 31.79 37.6082 31.8783 38.0941 32.0771C38.5799 32.2758 39.0878 32.5629 39.6399 32.9383L46.9495 38.1279C47.5237 38.5254 47.9212 38.9892 48.1641 39.5412C48.3849 40.0933 48.5174 40.6454 48.5174 41.2637Z" stroke="#FFCC00" stroke-width="1.5" stroke-miterlimit="10"/>
<path d="M40.8542 20.6598C40.8542 19.3348 39.8163 17.3032 38.2704 15.6469C36.8571 14.1232 34.98 12.9307 33.125 12.9307" stroke="#FFCC00" stroke-width="1.5" stroke-linecap="round" stroke-linejoin="round"/>
<path d="M48.5833 20.66C48.5833 12.1137 41.6712 5.20166 33.125 5.20166" stroke="#FFCC00" stroke-width="1.5" stroke-linecap="round" stroke-linejoin="round"/>
</svg>
