<svg width="28" height="29" viewBox="0 0 28 29" fill="none" xmlns="http://www.w3.org/2000/svg">
<path d="M16.464 27.1118V15.7718H20.776L21.42 11.3478H16.464V8.51982C16.464 7.81048 16.6227 7.28782 16.94 6.95182C17.3133 6.55982 17.9853 6.36382 18.956 6.36382H21.588V2.41582C21.2893 2.37848 20.8227 2.34115 20.188 2.30382C19.3667 2.26648 18.5453 2.24782 17.724 2.24782C16.4547 2.24782 15.3347 2.47182 14.364 2.91982C13.3933 3.36782 12.642 4.03048 12.11 4.90782C11.578 5.78515 11.312 6.83982 11.312 8.07182V11.3478H7V15.7718H11.312V27.1118H16.464Z" fill="white"/>
</svg>
