<svg width="28" height="29" viewBox="0 0 28 29" fill="none" xmlns="http://www.w3.org/2000/svg">
<path d="M8.9038 1.77189C7.48513 1.77189 6.16913 2.12656 4.9558 2.83589C3.7798 3.52656 2.84646 4.45989 2.1558 5.63589C1.44646 6.84922 1.0918 8.16522 1.0918 9.58389V19.7759C1.0918 21.1946 1.44646 22.5106 2.1558 23.7239C2.84646 24.8999 3.7798 25.8332 4.9558 26.5239C6.16913 27.2332 7.48513 27.5879 8.9038 27.5879H19.0958C20.5145 27.5879 21.8305 27.2332 23.0438 26.5239C24.2198 25.8332 25.1531 24.8999 25.8438 23.7239C26.5531 22.5106 26.9078 21.1946 26.9078 19.7759V9.58389C26.9078 8.16522 26.5531 6.84922 25.8438 5.63589C25.1531 4.45989 24.2198 3.52656 23.0438 2.83589C21.8305 2.12656 20.5145 1.77189 19.0958 1.77189H8.9038ZM20.8038 6.53189C21.1771 6.53189 21.4945 6.66256 21.7558 6.92389C22.0171 7.18522 22.1478 7.50256 22.1478 7.87589C22.1478 8.24922 22.0171 8.57122 21.7558 8.84189C21.4945 9.11256 21.1771 9.24789 20.8038 9.24789C20.4305 9.24789 20.1085 9.11256 19.8378 8.84189C19.5671 8.57122 19.4318 8.24922 19.4318 7.87589C19.4318 7.50256 19.5671 7.18522 19.8378 6.92389C20.1085 6.66256 20.4305 6.53189 20.8038 6.53189ZM13.9998 7.87589C15.2318 7.87589 16.3705 8.17922 17.4158 8.78589C18.4611 9.39256 19.2871 10.2186 19.8938 11.2639C20.5005 12.3092 20.8038 13.4479 20.8038 14.6799C20.8038 15.9119 20.5005 17.0459 19.8938 18.0819C19.2871 19.1179 18.4611 19.9392 17.4158 20.5459C16.3705 21.1526 15.2318 21.4559 13.9998 21.4559C12.7678 21.4559 11.6338 21.1526 10.5978 20.5459C9.5618 19.9392 8.74046 19.1179 8.1338 18.0819C7.52713 17.0459 7.2238 15.9119 7.2238 14.6799C7.2238 13.4479 7.52713 12.3092 8.1338 11.2639C8.74046 10.2186 9.5618 9.39256 10.5978 8.78589C11.6338 8.17922 12.7678 7.87589 13.9998 7.87589ZM13.9998 9.91989C13.4211 9.91989 12.8145 10.0412 12.1798 10.2839C11.5638 10.5639 11.0458 10.9139 10.6258 11.3339C10.2058 11.7539 9.86513 12.2626 9.6038 12.8599C9.36113 13.4946 9.2398 14.1012 9.2398 14.6799C9.2398 15.2586 9.36113 15.8652 9.6038 16.4999C9.8838 17.1159 10.2291 17.6292 10.6398 18.0399C11.0505 18.4506 11.5638 18.7959 12.1798 19.0759C12.8145 19.3186 13.4211 19.4399 13.9998 19.4399C14.5785 19.4399 15.1851 19.3186 15.8198 19.0759C16.4171 18.8146 16.9258 18.4739 17.3458 18.0539C17.7658 17.6339 18.1158 17.1159 18.3958 16.4999C18.6385 15.8652 18.7598 15.2586 18.7598 14.6799C18.7598 14.1012 18.6385 13.4946 18.3958 12.8599C18.1531 12.2626 17.8125 11.7446 17.3738 11.3059C16.9351 10.8672 16.4171 10.5266 15.8198 10.2839C15.1851 10.0412 14.5785 9.91989 13.9998 9.91989Z" fill="white"/>
</svg>
