<svg width="28" height="29" viewBox="0 0 28 29" fill="none" xmlns="http://www.w3.org/2000/svg">
<path d="M3.1084 10.7318C3.1084 9.53713 3.35107 8.37047 3.8364 7.2318C4.32173 6.09313 5.0404 5.0198 5.9924 4.0118C6.9444 3.0038 8.1624 2.19647 9.6464 1.5898C11.1304 0.983133 12.7871 0.6798 14.6164 0.6798C17.5657 0.6798 19.9971 1.5898 21.9104 3.4098C23.8237 5.2298 24.7804 7.39047 24.7804 9.8918C24.7804 13.0651 23.9731 15.6971 22.3584 17.7878C20.7437 19.8785 18.6577 20.9238 16.1004 20.9238C15.2604 20.9238 14.4764 20.7325 13.7484 20.3498C13.0204 19.9671 12.4977 19.4865 12.1804 18.9078L11.0604 23.3318C11.0044 23.5558 10.8831 23.9105 10.6964 24.3958C10.5657 24.7131 10.4071 25.0678 10.2204 25.4598L9.6884 26.4118L9.1564 27.2518L8.1484 28.5958C8.0924 28.6891 8.0224 28.7171 7.9384 28.6798C7.8544 28.6425 7.80307 28.5818 7.7844 28.4978C7.76573 28.4138 7.74707 28.2878 7.7284 28.1198L7.6444 27.3358C7.62573 27.1118 7.59773 26.7665 7.5604 26.2998C7.52307 25.7398 7.51373 25.3198 7.5324 25.0398C7.5324 24.6291 7.5604 24.1905 7.6164 23.7238C7.63507 23.3318 7.7004 22.8838 7.8124 22.3798C7.90573 21.9505 8.2884 20.3171 8.9604 17.4798L9.8844 13.6158C9.7164 13.2425 9.59507 12.8785 9.5204 12.5238C9.42707 12.0571 9.3804 11.7211 9.3804 11.5158L9.3524 11.0958C9.3524 9.90113 9.65573 8.90713 10.2624 8.1138C10.8691 7.32047 11.6017 6.9238 12.4604 6.9238C13.1511 6.9238 13.6924 7.1478 14.0844 7.5958C14.4577 8.08113 14.6444 8.6598 14.6444 9.3318C14.6444 9.7238 14.5697 10.2465 14.4204 10.8998C14.3271 11.2731 14.1497 11.8705 13.8884 12.6918L13.7764 13.0558C13.4964 13.9518 13.3097 14.6145 13.2164 15.0438C13.0297 15.8838 13.1931 16.6118 13.7064 17.2278C14.2197 17.8438 14.9057 18.1518 15.7644 18.1518C17.2391 18.1518 18.4571 17.3165 19.4184 15.6458C20.3797 13.9751 20.8604 11.9545 20.8604 9.5838C20.8604 7.75447 20.2771 6.27047 19.1104 5.1318C17.9437 3.99313 16.2964 3.4238 14.1684 3.4238C11.8164 3.4238 9.90773 4.17513 8.4424 5.6778C6.97707 7.18047 6.2444 8.9958 6.2444 11.1238C6.2444 12.3558 6.59907 13.4105 7.3084 14.2878C7.55107 14.5491 7.62573 14.8478 7.5324 15.1838L7.1964 16.4718C7.15907 16.6771 7.0704 16.8125 6.9304 16.8778C6.7904 16.9431 6.61773 16.9385 6.4124 16.8638C5.31107 16.4158 4.48507 15.6411 3.9344 14.5398C3.38373 13.4385 3.1084 12.1691 3.1084 10.7318Z" fill="white"/>
</svg>
