<svg width="28" height="29" viewBox="0 0 28 29" fill="none" xmlns="http://www.w3.org/2000/svg">
<path d="M18.704 3.7875H20.02L20.496 3.8715L20.692 3.9275C21.0093 4.00216 21.2333 4.0675 21.364 4.1235C21.644 4.2355 21.9053 4.35217 22.148 4.4735C22.3907 4.59483 22.6053 4.73017 22.792 4.8795C22.9227 4.97283 23.1 5.11283 23.324 5.2995C23.4733 5.44883 23.716 5.4955 24.052 5.4395L25.116 5.1315L25.368 5.0475C25.76 4.89816 26.0493 4.77683 26.236 4.6835C26.6093 4.5155 26.8333 4.4035 26.908 4.3475L27.048 4.2915V4.2635H27.076L27.104 4.2355H27.132L27.188 4.1795H27.216V4.2635L27.188 4.2915V4.3475H27.16V4.3755L27.132 4.4315C27.132 4.46883 27.1273 4.5015 27.118 4.5295C27.1087 4.5575 27.034 4.7115 26.894 4.9915C26.754 5.2715 26.5627 5.5795 26.32 5.9155C26.1707 6.10217 25.9653 6.32616 25.704 6.5875C25.5733 6.68083 25.4567 6.77883 25.354 6.8815C25.2513 6.98417 25.172 7.04483 25.116 7.0635L24.976 7.1755H24.948V7.2035H24.92L24.892 7.2315H24.864V7.2595H24.836V7.2875H24.808H24.948L25.648 7.1195C26.1333 7.02617 26.5813 6.91417 26.992 6.7835L27.692 6.5595L27.804 6.5035H27.832L27.86 6.4755H27.888L27.944 6.4475H28V6.5035H27.972V6.5315H27.944V6.5595H27.916V6.5875H27.888V6.6155C27.888 6.63416 27.776 6.7835 27.552 7.0635L27.384 7.2875C27.2907 7.41817 27.2347 7.4835 27.216 7.4835C27.1973 7.4835 27.188 7.49283 27.188 7.5115L27.16 7.5395C27.1227 7.5955 26.936 7.78217 26.6 8.0995C26.376 8.34216 26.0587 8.6315 25.648 8.9675C25.3307 9.22883 25.172 9.53683 25.172 9.8915C25.172 10.0968 25.1533 10.4608 25.116 10.9835V11.1515C25.0973 11.4128 25.0413 11.8328 24.948 12.4115L24.92 12.6635C24.8267 13.2235 24.6867 13.8255 24.5 14.4695C24.3133 15.1135 24.0707 15.7808 23.772 16.4715C23.548 17.0502 23.2587 17.6288 22.904 18.2075C22.6427 18.6928 22.372 19.1315 22.092 19.5235L21.308 20.5315C21.0653 20.8302 20.7387 21.1848 20.328 21.5955L19.656 22.2395L19.18 22.6315C19.012 22.7622 18.76 22.9582 18.424 23.2195L17.976 23.5275C17.6773 23.7328 17.4627 23.8728 17.332 23.9475L16.324 24.4795C15.8387 24.7222 15.4093 24.9088 15.036 25.0395C14.812 25.1328 14.448 25.2635 13.944 25.4315L13.608 25.5435C13.0853 25.6928 12.6 25.8048 12.152 25.8795C11.5547 25.9915 11.0227 26.0662 10.556 26.1035L9.66 26.1875H8.008L7.784 26.1595C7.616 26.1595 7.504 26.1502 7.448 26.1315L6.384 26.0195C5.80533 25.9262 5.32933 25.8422 4.956 25.7675C4.76933 25.7302 4.38667 25.6088 3.808 25.4035L3.416 25.2915C2.59467 24.9928 2.016 24.7595 1.68 24.5915C1.15733 24.3302 0.849333 24.1808 0.756 24.1435L0.588 24.0315C0.494667 23.9755 0.42 23.9288 0.364 23.8915L0.14 23.7515H0.112L0.084 23.7235H0.056V23.6955H0.028V23.6675H0V23.6395H0.168C0.205333 23.6582 0.308 23.6675 0.476 23.6675L0.784 23.6955H1.848C2.37067 23.6582 2.76267 23.6208 3.024 23.5835C3.36 23.5275 3.82667 23.4248 4.424 23.2755C4.984 23.1262 5.47867 22.9582 5.908 22.7715L6.86 22.3515C7.10267 22.2208 7.392 22.0435 7.728 21.8195L8.316 21.4275V21.3995H8.344L8.372 21.3715H8.4V21.3435L8.428 21.3155L8.232 21.2875C8.064 21.2875 7.93333 21.2782 7.84 21.2595C7.672 21.2595 7.476 21.2222 7.252 21.1475C7.10267 21.1102 6.86 21.0355 6.524 20.9235L6.384 20.8675C6.17867 20.7742 5.87067 20.6155 5.46 20.3915L5.264 20.2515C5.04 20.1022 4.89067 19.9902 4.816 19.9155L4.312 19.4115C4.21867 19.3182 4.07867 19.1502 3.892 18.9075L3.78 18.7395C3.64933 18.5342 3.50933 18.2635 3.36 17.9275L3.136 17.4795V17.4515L3.108 17.4235V17.3675H3.192L3.472 17.4235C3.584 17.4422 3.87333 17.4515 4.34 17.4515L4.76 17.4235C4.96533 17.4235 5.096 17.4142 5.152 17.3955L5.488 17.3395L5.544 17.3115H5.6V17.2835H5.628L5.572 17.2555H5.544L5.488 17.2275H5.376C5.35733 17.2088 5.32933 17.1995 5.292 17.1995L5.208 17.1715C5.07733 17.1155 4.844 17.0222 4.508 16.8915C4.116 16.7048 3.82667 16.5555 3.64 16.4435C3.49067 16.3315 3.28533 16.1635 3.024 15.9395C2.89333 15.8275 2.688 15.6128 2.408 15.2955L2.352 15.2395C2.072 14.8848 1.86667 14.5582 1.736 14.2595C1.54933 13.9048 1.40933 13.5502 1.316 13.1955C1.204 12.7475 1.13867 12.4022 1.12 12.1595L1.092 11.6555H1.148L1.176 11.6835H1.204L1.232 11.7115L1.624 11.8795C1.97867 12.0288 2.30533 12.1315 2.604 12.1875L3.304 12.3275H3.64H3.612V12.2995H3.584V12.2715H3.556L3.528 12.2435H3.5L3.248 12.0475C3.15467 11.9728 3.00533 11.8328 2.8 11.6275L2.352 11.1235C2.27733 11.0302 2.184 10.8995 2.072 10.7315L1.932 10.5355C1.83867 10.3302 1.71733 10.0595 1.568 9.7235C1.41867 9.31283 1.32533 8.9955 1.288 8.7715C1.21333 8.4915 1.176 8.17417 1.176 7.8195C1.15733 7.67016 1.15733 7.47416 1.176 7.2315V7.0075C1.21333 6.7835 1.26933 6.5315 1.344 6.2515L1.372 6.1675C1.484 5.81283 1.58667 5.54216 1.68 5.3555L1.876 4.8795L1.904 4.8515V4.7955H1.96V4.8235H1.988V4.8515L2.016 4.8795V4.9075L2.352 5.2715C2.50133 5.4395 2.772 5.7195 3.164 6.1115C3.444 6.3915 3.62133 6.55017 3.696 6.5875C3.71467 6.5875 3.73333 6.60616 3.752 6.6435L3.808 6.6995C3.864 6.7555 4.032 6.8955 4.312 7.1195C4.46133 7.25016 4.75067 7.46483 5.18 7.7635L5.432 7.9315C5.95467 8.2675 6.468 8.5755 6.972 8.8555C7.756 9.22883 8.36267 9.4995 8.792 9.6675L8.932 9.7235C9.604 9.9475 10.0147 10.0782 10.164 10.1155C10.4813 10.2275 10.9293 10.3302 11.508 10.4235C11.7693 10.4795 12.1053 10.5355 12.516 10.5915L12.936 10.6475L13.58 10.7035H13.748V10.6195L13.692 10.3115C13.6547 10.0502 13.636 9.76083 13.636 9.4435C13.636 9.03283 13.6687 8.6875 13.734 8.4075C13.7993 8.1275 13.888 7.8195 14 7.4835C14.112 7.1475 14.224 6.87683 14.336 6.6715C14.4107 6.54083 14.56 6.33083 14.784 6.0415C15.008 5.75216 15.2507 5.48616 15.512 5.2435C15.8853 4.94483 16.2213 4.7115 16.52 4.5435C16.856 4.35683 17.2013 4.19816 17.556 4.0675C17.9107 3.93683 18.1813 3.86216 18.368 3.8435L18.704 3.7875Z" fill="white"/>
</svg>
