<svg width="44" height="45" viewBox="0 0 44 45" fill="none" xmlns="http://www.w3.org/2000/svg">
<path d="M0.00408578 0.401544C4.05186 0.393699 8.10061 0.394679 12.1484 0.399583C12.5111 0.362316 12.7223 0.703605 12.9521 0.921324C15.9449 3.92526 18.9387 6.92919 21.9315 9.93313C25.0231 6.81641 28.1254 3.71244 31.2247 0.604553C31.3479 0.461368 31.5181 0.366239 31.7136 0.394679C35.7585 0.402525 39.8013 0.386834 43.8462 0.401544C43.8569 10.8521 43.8481 21.3006 43.8511 31.7511C43.8442 35.9535 43.8657 40.1578 43.8403 44.3602C41.5671 44.4181 39.2919 44.37 37.0178 44.3857H5.0071C3.34106 44.37 1.67306 44.4181 0.00799602 44.3573C-0.00569211 29.7044 0.00212938 15.0525 0.0031071 0.400564L0.00408578 0.401544ZM4.62481 5.03151C4.61992 16.603 4.61503 28.1754 4.62774 39.7479C16.1619 39.7508 27.6971 39.7479 39.2313 39.7498C39.2235 28.2382 39.2333 16.7256 39.2274 5.2149C39.2734 5.03151 39.0632 5.0217 38.9439 5.03053C37.1429 5.03641 35.34 5.03053 33.539 5.03347C33.3884 5.01581 33.2613 5.10016 33.1626 5.20411C30.51 7.87656 27.8457 10.5343 25.1942 13.2077C26.7409 14.7553 28.2886 16.3009 29.8286 17.8554C29.9048 17.9603 30.031 17.977 30.1512 17.977C33.0228 17.9995 35.8963 17.9466 38.7669 18.0015C37.4049 19.8354 35.9882 21.6301 34.5989 23.4435C32.7285 23.4631 30.8561 23.4346 28.9858 23.4572C30.0446 24.5066 31.1016 25.5579 32.1419 26.6249C31.9219 26.9652 31.6139 27.231 31.3333 27.5164C28.2681 30.5988 25.1912 33.6694 22.13 36.7538C22.0801 36.7616 21.9804 36.7773 21.9305 36.7851C19.2828 34.1176 16.6205 31.4638 13.9738 28.7943C11.0445 28.7766 8.1143 28.8119 5.18504 28.7756C5.42361 28.2892 5.80785 27.8999 6.12561 27.4674C7.10334 26.1826 8.09572 24.9087 9.07736 23.6269C9.20544 23.4749 9.33352 23.2562 9.5672 23.3003C11.3691 23.2944 13.173 23.3032 14.975 23.3003C13.923 22.2303 12.8504 21.18 11.8033 20.1061C14.0618 17.7857 16.3819 15.5242 18.6463 13.2087C16.0466 10.5559 13.3979 7.95012 10.7874 5.30611C10.6534 5.18254 10.5205 5.00601 10.3152 5.03347C8.4174 5.03053 6.52159 5.03543 4.62383 5.03347L4.62481 5.03151ZM15.2712 23.1532C15.1265 23.2503 15.1744 23.4386 15.2986 23.5278C17.5308 25.7815 19.7756 28.0224 22.0136 30.2693C24.2106 28.047 26.4231 25.8403 28.6279 23.6278C28.7071 23.5298 28.8792 23.3944 28.712 23.2915C26.4525 21.0172 24.1861 18.7498 21.9237 16.4794C19.7091 18.7076 17.4916 20.9328 15.2712 23.1532Z" fill="#FFCC00"/>
</svg>
