<svg width="44" height="44" viewBox="0 0 44 44" fill="none" xmlns="http://www.w3.org/2000/svg">
<path d="M0.00409946 0.0118961C4.06543 0.00405033 8.12775 0.00503104 12.1891 0.00993462C12.553 -0.0273326 12.7649 0.313957 12.9955 0.531676C15.9983 3.53561 19.0021 6.53954 22.0049 9.54348C25.1069 6.42676 28.2196 3.32279 31.3293 0.214904C31.4529 0.0717198 31.6236 -0.0234097 31.8198 0.00503104C35.8782 0.0128768 39.9347 -0.00281469 43.993 0.0118961C44.0038 10.4624 43.995 20.911 43.9979 31.3615C43.9911 35.5638 44.0127 39.7682 43.9872 43.9705C41.7063 44.0284 39.4236 43.9804 37.1418 43.996H5.02387C3.35225 43.9804 1.67866 44.0284 0.0080228 43.9676C-0.00571118 29.3147 0.00213651 14.6628 0.00311751 0.0109153L0.00409946 0.0118961ZM4.6403 4.64186C4.63539 16.2133 4.63049 27.7858 4.64324 39.3582C16.2161 39.3612 27.7899 39.3582 39.3627 39.3602C39.3549 27.8486 39.3647 16.3359 39.3588 4.82525C39.4049 4.64186 39.194 4.63205 39.0743 4.64088C37.2673 4.64676 35.4584 4.64088 33.6514 4.64382C33.5003 4.62617 33.3728 4.71051 33.2737 4.81446C30.6122 7.48692 27.939 10.1447 25.2785 12.8181C26.8305 14.3657 28.3834 15.9113 29.9285 17.4657C30.005 17.5706 30.1315 17.5873 30.2522 17.5873C33.1334 17.6099 36.0165 17.5569 38.8968 17.6118C37.5302 19.4458 36.1088 21.2405 34.7148 23.0538C32.8381 23.0734 30.9595 23.045 29.0829 23.0676C30.1453 24.1169 31.2057 25.1683 32.2495 26.2353C32.0288 26.5756 31.7198 26.8414 31.4382 27.1267C28.3628 30.2091 25.2756 33.2798 22.2041 36.3641C22.1541 36.372 22.054 36.3876 22.004 36.3955C19.3474 33.7279 16.6762 31.0741 14.0206 28.4046C11.0815 28.387 8.14148 28.4223 5.20241 28.386C5.44177 27.8995 5.82731 27.5102 6.14613 27.0777C7.12713 25.793 8.12284 24.519 9.10776 23.2372C9.23627 23.0852 9.36478 22.8665 9.59924 22.9106C11.4072 22.9048 13.2172 22.9136 15.0251 22.9106C13.9696 21.8407 12.8934 20.7903 11.8428 19.7164C14.1089 17.3961 16.4368 15.1345 18.7088 12.8191C16.1003 10.1662 13.4428 7.56047 10.8235 4.91646C10.6891 4.79289 10.5557 4.61636 10.3497 4.64382C8.44559 4.64088 6.54343 4.64578 4.63932 4.64382L4.6403 4.64186ZM15.3224 22.7635C15.1772 22.8606 15.2253 23.0489 15.3499 23.1382C17.5895 25.3919 19.8418 27.6328 22.0874 29.8796C24.2917 27.6573 26.5117 25.4507 28.7238 23.2382C28.8033 23.1401 28.9759 23.0048 28.8082 22.9018C26.5411 20.6275 24.2671 18.3601 21.9971 16.0898C19.7751 18.3179 17.5502 20.5432 15.3224 22.7635Z" fill="#0E0E0E"/>
</svg>
